# xmcd
#
# Track frame offsets: 
#        150
#        11987
#        23560
#        34102
#        57010
#        69637
#        78598
#        89905
#        106504
#        120302
#
# Disc length: 1737 seconds
#
# Revision: 0
# Processed by: cddbd v1.5.2PL0 Copyright (c) Steve Scherf et al.
# Submitted via: ExactAudioCopy v1.0b1
#
DISCID=7706c70a
DTITLE=Wilson Pickett - The Sound Of Wilson Pickett
DYEAR=1967
DGENRE=R&B
TTITLE0=Soul Dance Number Three (stereo)
TTITLE1=Funky Broadway (stereo)
TTITLE2=I Need A Lot Of Loving Every Day (stereo)
TTITLE3=I Found A Love (stereo)
TTITLE4=You Can't Stand Alone (stereo)
TTITLE5=Mojo Mamma (stereo)
TTITLE6=I Found The One (stereo)
TTITLE7=Something Within Me (stereo)
TTITLE8=I'm Sorry About That (stereo)
TTITLE9=Love Is A Beautiful Thing (stereo)
EXTD=
EXTT0=
EXTT1=
EXTT2=
EXTT3=
EXTT4=
EXTT5=
EXTT6=
EXTT7=
EXTT8=
EXTT9=
PLAYORDER=
